<svg width="195" height="42" viewBox="0 0 195 42" fill="none" xmlns="http://www.w3.org/2000/svg">
<path d="M22.6481 10.6423L19.4131 9.22588L20.4833 8.47217L22.2866 8.51405L23.0485 9.50455L22.6481 10.6423Z" fill="#011E24"/>
<path d="M22.839 26.6401L29.6907 23.434V15.4951L24.4209 11.5696L24.9495 10.2455L24.9423 8.60092L22.9345 7.0473L19.9271 7.01265C19.9271 7.01265 17.2178 8.31215 17.1285 8.44065C16.9701 8.44065 12.9717 8.48541 12.2155 8.48541C10.3978 9.59721 6.8949 11.7991 6.8949 11.7991L6.90354 13.4221L2.1317 16.2434L4.7027 16.564L5.02966 17.4693L4.14097 18.9449C4.14097 18.9449 3.03047 19.5716 2.88356 19.6106C3.15732 20.1005 3.46235 20.5722 3.79673 21.0227C3.96813 21.2364 4.20723 21.2768 4.41752 21.336C4.75168 21.4284 5.11176 21.4212 5.45888 21.4688C5.63604 21.4919 5.80888 21.554 5.98749 21.5771C6.16609 21.6002 8.97618 22.0103 9.3622 22.0406C9.71468 22.1044 10.0611 22.1982 10.3978 22.3207C11.033 22.6485 11.6379 23.0427 12.2702 23.3575C12.9429 23.6968 13.5665 24.1039 14.2176 24.4793C14.7289 24.7768 15.7256 25.4453 15.7256 25.4453L16.5202 26.2584L14.4495 26.277L5.39695 41.4493L5.36094 25.3398L7.23235 23.434L3.20043 22.5604L0.449387 18.1869L0 16.1438L5.41567 12.8503L5.34509 1.44928H24.1934C24.1934 1.44928 25.6337 1.63554 26.0658 1.76404C26.4979 1.89255 26.8364 1.95752 28.2969 3.02744C29.6537 4.20421 33.3568 7.96698 35.5144 10.1241C35.7506 10.3609 36.455 11.2605 36.5947 11.8409C36.7344 12.4214 36.9231 13.3195 36.9231 13.9981C36.8986 17.3782 36.9231 24.2355 36.9231 24.2355C36.9072 25.2982 36.5169 26.3015 35.9537 27.2414C35.7089 27.6515 34.6805 28.7994 33.8681 29.6354C33.4916 30.0199 33.0274 30.3068 32.5156 30.4714L22.851 33.6032L22.839 26.6401Z" fill="#011E24"/>
<path d="M11.2591 15.5142C10.8688 15.5705 9.52063 14.528 9.52063 14.528L10.7291 13.614H12.8896L13.9641 14.5453C13.9641 14.5453 13.0134 14.5381 12.6966 14.5381C12.289 15.0218 11.6494 15.4636 11.2562 15.5214" fill="#011E24"/>
<path d="M190.323 24.4581C191.684 27.4689 193.496 30.1331 194.875 33.144H190.42C190.42 33.144 187.542 27.8525 186.123 25.2068C183.782 25.1036 181.542 25.1777 179.198 25.1936V33.1307H175.386V6.92484H176.339C179.909 6.92484 183.488 6.81637 187.053 6.98305C188.56 7.0418 190.028 7.48717 191.316 8.27681C193.511 9.63935 194.378 11.6766 194.812 14.0551C195.062 15.4238 195.062 16.8269 194.812 18.1956C194.528 20.0662 193.646 21.7932 192.3 23.1167C191.75 23.6379 191.036 23.9898 190.323 24.4581ZM179.183 21.2832C179.183 21.2832 184.628 21.2832 186.86 21.2832C187.569 21.2932 188.266 21.1044 188.874 20.7379C189.481 20.3715 189.975 19.842 190.299 19.2089C190.754 18.427 191.03 17.5531 191.107 16.6507C191.184 15.7482 191.06 14.8399 190.744 13.9916C190.328 12.8248 189.641 11.8141 188.398 11.4067C187.606 11.1189 186.773 10.9608 185.931 10.9384H183.698C182.34 10.9384 180.383 10.9384 179.783 10.9384C179.183 10.9384 179.188 11.5469 179.188 11.9279C179.188 14.7747 179.183 21.2885 179.183 21.2885V21.2832Z" fill="#011E24"/>
<path d="M51.115 25.2702V33.0963H47.3076V6.9036C47.3076 6.9036 55.1461 6.811 58.6875 6.94329C60.5438 7.01207 62.3975 7.44862 63.872 8.76355C65.1464 9.85515 66.0427 11.3255 66.4313 12.9623C67.0075 15.2192 66.9317 17.5943 66.2127 19.8094C65.722 21.3912 64.7274 22.767 63.3822 23.7251C61.8918 24.7803 60.0988 25.3164 58.2768 25.2517L51.115 25.2702ZM51.0992 21.2805C51.0992 21.2805 56.4574 21.3519 58.8429 21.3545C59.8487 21.3545 60.686 20.8413 61.3522 20.1745C62.3095 19.2255 62.8739 17.9476 62.932 16.5975C63.1242 13.4227 61.3522 10.9172 57.8028 10.9119C56.0335 10.9119 54.2614 10.9119 52.4894 10.9119H51.6468C51.0939 11.2161 51.1018 11.6051 51.1018 11.9966C51.1044 14.7826 51.0992 21.2805 51.0992 21.2805Z" fill="#011E24"/>
<path d="M149.851 33.144H145.224C145.224 32.6572 156.12 10.3299 157.881 6.69995C157.901 6.6506 157.935 6.60826 157.978 6.57842C158.022 6.54858 158.073 6.53263 158.126 6.53263C158.179 6.53263 158.231 6.54858 158.274 6.57842C158.318 6.60826 158.352 6.6506 158.371 6.69995C160.148 10.2981 171.033 32.3159 171.033 33.1175L166.557 33.1466L158.45 16.4785C158.423 16.4232 158.382 16.3766 158.33 16.344C158.278 16.3113 158.218 16.294 158.157 16.294C158.095 16.294 158.035 16.3113 157.983 16.344C157.932 16.3766 157.89 16.4232 157.863 16.4785L149.851 33.144Z" fill="#011E24"/>
<path d="M106.377 6.91953L106.393 28.2547C106.393 28.395 106.448 28.5296 106.547 28.6288C106.646 28.728 106.78 28.7838 106.919 28.7838H119.031L119.055 33.181V33.1492L103.101 33.181C102.962 33.181 102.828 33.1252 102.729 33.026C102.63 32.9268 102.575 32.7922 102.575 32.6518V6.91953H106.358H106.377Z" fill="#011E24"/>
<path d="M127.878 6.91953L127.897 28.2547C127.897 28.395 127.952 28.5296 128.051 28.6288C128.15 28.728 128.284 28.7838 128.423 28.7838H140.548L140.575 33.181V33.1492L124.621 33.181C124.481 33.181 124.347 33.1252 124.249 33.026C124.15 32.9268 124.094 32.7922 124.094 32.6518V6.91953H127.878Z" fill="#011E24"/>
<path d="M84.3727 6.46183C81.708 6.46183 79.1031 7.25582 76.8874 8.74342C74.6718 10.231 72.9449 12.3454 71.9251 14.8192C70.9054 17.2929 70.6386 20.015 71.1584 22.6412C71.6783 25.2673 72.9615 27.6796 74.8457 29.5729C76.73 31.4663 79.1307 32.7557 81.7442 33.278C84.3578 33.8004 87.0668 33.5323 89.5287 32.5076C91.9906 31.483 94.0948 29.7477 95.5753 27.5214C97.0557 25.2951 97.8459 22.6776 97.8459 20C97.8462 18.222 97.498 16.4614 96.821 14.8188C96.1441 13.1761 95.1516 11.6835 93.9005 10.4263C92.6493 9.16908 91.1639 8.17188 89.5291 7.49165C87.8943 6.81141 86.1421 6.46148 84.3727 6.46183ZM84.3727 29.7204C82.4588 29.7204 80.5879 29.1501 78.9965 28.0816C77.4052 27.0131 76.165 25.4944 75.4327 23.7176C74.7004 21.9408 74.5089 19.9857 74.8825 18.0995C75.2561 16.2134 76.1779 14.4809 77.5314 13.1212C78.885 11.7615 80.6094 10.8357 82.4866 10.4608C84.3638 10.086 86.3095 10.2789 88.0775 11.0152C89.8456 11.7515 91.3567 12.9982 92.4196 14.5974C93.4825 16.1967 94.0496 18.0769 94.0491 20C94.0484 22.5783 93.0286 25.0507 91.214 26.8735C89.3994 28.6964 86.9386 29.7204 84.3727 29.7204Z" fill="#011E24"/>
</svg>
