<svg width="96" height="96" viewBox="0 0 96 96" fill="none" xmlns="http://www.w3.org/2000/svg">
<g clip-path="url(#clip0_293_19812)">
<rect width="96" height="96" rx="48" fill="white"/>
<g clip-path="url(#clip1_293_19812)">
<path d="M-43.2 0H139.2V96H-43.2" fill="#B31942"/>
<path d="M-43.2 11.0769H139.2H-43.2ZM139.2 25.8461H-43.2H139.2ZM-43.2 40.6154H139.2H-43.2ZM139.2 55.3846H-43.2H139.2ZM-43.2 70.1538H139.2H-43.2ZM139.2 84.9231H-43.2H139.2Z" fill="black"/>
<path d="M-43.2 11.0769H139.2M139.2 25.8461H-43.2M-43.2 40.6154H139.2M139.2 55.3846H-43.2M-43.2 70.1538H139.2M139.2 84.9231H-43.2" stroke="white" stroke-width="9.84615"/>
<path d="M-43.2 0H29.76V51.6923H-43.2" fill="#0A3161"/>
<path d="M-0.639963 2.21539L1.09626 7.55895L-3.44922 4.25645H2.16932L-2.37618 7.55895L-0.639963 2.21539Z" fill="white"/>
<path d="M-0.639963 12.5538L1.09626 17.8974L-3.44922 14.5949H2.16932L-2.37618 17.8974L-0.639963 12.5538Z" fill="white"/>
<path d="M-0.639963 22.8923L1.09626 28.2359L-3.44922 24.9334H2.16932L-2.37618 28.2359L-0.639963 22.8923Z" fill="white"/>
<path d="M-0.639963 33.2308L1.09626 38.5743L-3.44922 35.2718H2.16932L-2.37618 38.5743L-0.639963 33.2308Z" fill="white"/>
<path d="M-0.639963 43.5692L1.09626 48.9128L-3.44922 45.6103H2.16932L-2.37618 48.9128L-0.639963 43.5692Z" fill="white"/>
<path d="M5.44011 7.38464L7.17634 12.7282L2.63086 9.4257H8.2494L3.70389 12.7282L5.44011 7.38464Z" fill="white"/>
<path d="M5.44011 17.7231L7.17634 23.0666L2.63086 19.7641H8.2494L3.70389 23.0666L5.44011 17.7231Z" fill="white"/>
<path d="M5.44011 28.0616L7.17634 33.4051L2.63086 30.1026H8.2494L3.70389 33.4051L5.44011 28.0616Z" fill="white"/>
<path d="M5.44011 38.4L7.17634 43.7436L2.63086 40.4411H8.2494L3.70389 43.7436L5.44011 38.4Z" fill="white"/>
<path d="M11.5199 2.21539L13.2562 7.55895L8.71069 4.25645H14.3292L9.78373 7.55895L11.5199 2.21539Z" fill="white"/>
<path d="M11.5199 12.5538L13.2562 17.8974L8.71069 14.5949H14.3292L9.78373 17.8974L11.5199 12.5538Z" fill="white"/>
<path d="M11.5199 22.8923L13.2562 28.2359L8.71069 24.9334H14.3292L9.78373 28.2359L11.5199 22.8923Z" fill="white"/>
<path d="M11.5199 33.2308L13.2562 38.5743L8.71069 35.2718H14.3292L9.78373 38.5743L11.5199 33.2308Z" fill="white"/>
<path d="M11.5199 43.5692L13.2562 48.9128L8.71069 45.6103H14.3292L9.78373 48.9128L11.5199 43.5692Z" fill="white"/>
<path d="M17.6 7.38464L19.3362 12.7282L14.7908 9.4257H20.4093L15.8638 12.7282L17.6 7.38464Z" fill="white"/>
<path d="M17.6 17.7231L19.3362 23.0666L14.7908 19.7641H20.4093L15.8638 23.0666L17.6 17.7231Z" fill="white"/>
<path d="M17.6 28.0616L19.3362 33.4051L14.7908 30.1026H20.4093L15.8638 33.4051L17.6 28.0616Z" fill="white"/>
<path d="M17.6 38.4L19.3362 43.7436L14.7908 40.4411H20.4093L15.8638 43.7436L17.6 38.4Z" fill="white"/>
<path d="M23.6801 2.21539L25.4163 7.55895L20.8708 4.25645H26.4894L21.9439 7.55895L23.6801 2.21539Z" fill="white"/>
<path d="M23.6801 12.5538L25.4163 17.8974L20.8708 14.5949H26.4894L21.9439 17.8974L23.6801 12.5538Z" fill="white"/>
<path d="M23.6801 22.8923L25.4163 28.2359L20.8708 24.9334H26.4894L21.9439 28.2359L23.6801 22.8923Z" fill="white"/>
<path d="M23.6801 33.2308L25.4163 38.5743L20.8708 35.2718H26.4894L21.9439 38.5743L23.6801 33.2308Z" fill="white"/>
<path d="M23.6801 43.5692L25.4163 48.9128L20.8708 45.6103H26.4894L21.9439 48.9128L23.6801 43.5692Z" fill="white"/>
</g>
</g>
<defs>
<clipPath id="clip0_293_19812">
<rect width="96" height="96" rx="48" fill="white"/>
</clipPath>
<clipPath id="clip1_293_19812">
<rect width="182.4" height="96" fill="white" transform="translate(-43.2)"/>
</clipPath>
</defs>
</svg>
